<?xml version="1.0" encoding="UTF-8" ?>
<!DOCTYPE svg PUBLIC "-//W3C//DTD SVG 1.1//EN" "http://www.w3.org/Graphics/SVG/1.1/DTD/svg11.dtd">
<svg width="257pt" height="257pt" viewBox="0 0 257 257" version="1.1" xmlns="http://www.w3.org/2000/svg">
<g id="#000000ff">
<path fill="#000000" opacity="1.00" d=" M 104.32 0.00 L 152.67 0.00 C 154.57 1.10 156.76 2.08 157.93 4.04 C 159.94 8.15 159.57 13.06 161.83 17.06 C 163.61 18.17 165.67 18.69 167.64 19.35 C 173.26 21.04 178.57 23.58 183.82 26.17 C 188.24 23.05 193.09 19.11 198.88 19.99 C 203.81 20.37 207.07 24.46 210.33 27.67 C 217.35 34.98 224.79 41.89 231.69 49.31 C 234.24 52.34 237.34 55.71 237.10 59.96 C 236.59 65.03 232.28 68.54 230.70 73.21 C 231.25 76.54 233.23 79.40 234.52 82.48 C 236.46 86.37 237.29 90.75 239.48 94.51 C 242.57 96.27 246.27 96.33 249.57 97.52 C 252.91 98.55 255.11 101.50 257.00 104.26 L 257.00 151.54 C 255.24 153.59 253.40 155.64 251.07 157.06 C 247.61 159.07 243.42 159.19 239.86 160.97 C 237.64 164.13 237.00 168.06 235.47 171.55 C 234.03 175.47 231.48 178.98 230.64 183.11 C 232.28 187.98 237.17 191.50 237.21 196.97 C 237.99 201.74 233.81 204.87 230.79 207.78 C 222.69 215.69 214.75 223.76 206.79 231.80 C 204.03 234.53 200.44 237.15 196.33 236.66 C 191.25 236.13 187.81 231.71 183.05 230.38 C 179.46 231.36 176.32 233.50 172.84 234.78 C 169.23 236.28 165.28 236.96 161.85 238.88 C 159.50 243.13 160.17 248.44 157.65 252.65 C 155.78 255.25 152.46 256.07 149.56 257.00 L 107.44 257.00 C 104.15 255.93 100.19 254.89 98.48 251.56 C 96.78 247.46 96.27 243.00 95.48 238.66 C 87.56 237.00 80.38 233.24 73.17 229.74 C 69.20 232.75 65.09 236.36 59.89 236.71 C 56.25 236.97 53.08 234.84 50.69 232.32 C 42.12 223.55 33.45 214.88 24.68 206.31 C 22.17 203.84 19.80 200.71 19.97 197.00 C 20.07 191.70 24.56 187.94 25.79 183.00 C 24.82 178.21 22.21 173.95 20.65 169.33 C 19.35 166.39 18.79 162.90 16.52 160.53 C 13.08 158.94 9.16 158.87 5.73 157.27 C 3.05 155.83 1.51 153.06 0.00 150.55 L 0.00 104.07 C 1.99 101.75 3.78 98.98 6.72 97.79 C 10.08 96.43 13.68 95.89 17.22 95.21 C 19.87 87.74 24.12 80.78 25.79 73.02 C 24.51 68.38 20.41 64.84 20.02 59.87 C 19.57 55.37 22.75 51.69 25.70 48.71 C 33.94 40.61 42.12 32.44 50.20 24.18 C 52.52 21.79 55.49 19.62 59.00 19.83 C 64.23 19.32 68.01 23.39 72.21 25.73 C 73.69 26.88 75.39 25.46 76.80 24.88 C 82.64 21.47 89.26 19.85 95.55 17.50 C 96.28 13.38 96.80 9.18 98.33 5.26 C 99.36 2.65 102.03 1.33 104.32 0.00 M 117.43 37.56 C 107.51 38.73 97.94 42.04 88.80 45.95 C 76.84 52.26 65.62 60.49 57.35 71.31 C 53.18 75.76 50.54 81.28 47.48 86.49 C 38.97 101.89 36.11 119.99 37.69 137.40 C 38.31 143.38 39.78 149.22 40.89 155.12 C 41.41 157.96 42.19 160.78 43.56 163.34 C 47.67 170.78 51.54 178.45 56.94 185.08 C 78.82 213.14 118.14 226.10 152.37 216.22 C 173.15 210.75 191.64 197.48 203.77 179.78 C 207.16 174.97 209.55 169.56 212.55 164.51 C 213.57 162.75 214.42 160.86 214.82 158.84 C 215.87 153.51 217.33 148.27 218.26 142.91 C 220.48 130.69 219.81 118.03 216.79 106.00 C 212.71 88.68 202.49 73.42 190.20 60.81 C 185.34 56.56 179.84 53.10 174.50 49.49 C 157.35 39.70 137.12 34.97 117.43 37.56 Z" />
<path fill="#000000" opacity="1.00" d=" M 82.02 63.04 C 94.03 54.26 108.57 49.45 123.31 48.05 C 121.63 53.47 119.20 58.60 116.65 63.66 C 104.13 90.49 91.68 117.37 78.96 144.11 C 93.42 143.98 107.81 142.05 122.27 142.12 C 117.14 156.05 110.82 169.51 105.29 183.28 C 102.62 189.42 100.22 195.68 97.30 201.71 C 71.32 190.69 51.96 165.24 49.13 137.07 C 48.94 130.71 48.82 124.33 49.23 117.98 C 51.74 96.14 64.10 75.72 82.02 63.04 Z" />
<path fill="#000000" opacity="1.00" d=" M 157.54 53.87 C 176.42 61.15 192.09 76.06 200.63 94.37 C 207.94 109.84 209.87 127.70 206.42 144.42 C 203.60 158.20 196.88 171.06 187.57 181.57 C 171.99 199.09 148.32 208.83 124.93 207.89 C 117.45 207.31 110.04 205.93 102.86 203.73 C 123.78 175.72 145.05 147.98 166.06 120.04 C 169.84 114.96 173.95 110.12 177.39 104.80 C 161.22 105.27 145.15 107.76 128.97 108.06 C 138.53 90.01 148.26 72.05 157.54 53.87 Z" />
</g>
<g id="#ffffffff">
<path fill="#ffffff" opacity="1.00" d=" M 117.43 37.56 C 137.12 34.97 157.35 39.70 174.50 49.49 C 179.84 53.10 185.34 56.56 190.20 60.81 C 202.49 73.42 212.71 88.68 216.79 106.00 C 219.81 118.03 220.48 130.69 218.26 142.91 C 217.33 148.27 215.87 153.51 214.82 158.84 C 214.42 160.86 213.57 162.75 212.55 164.51 C 209.55 169.56 207.16 174.97 203.77 179.78 C 191.64 197.48 173.15 210.75 152.37 216.22 C 118.14 226.10 78.82 213.14 56.94 185.08 C 51.54 178.45 47.67 170.78 43.56 163.34 C 42.19 160.78 41.41 157.96 40.89 155.12 C 39.78 149.22 38.31 143.38 37.69 137.40 C 36.11 119.99 38.97 101.89 47.48 86.49 C 50.54 81.28 53.18 75.76 57.35 71.31 C 65.62 60.49 76.84 52.26 88.80 45.95 C 97.94 42.04 107.51 38.73 117.43 37.56 M 82.02 63.04 C 64.10 75.72 51.74 96.14 49.23 117.98 C 48.82 124.33 48.94 130.71 49.13 137.07 C 51.96 165.24 71.32 190.69 97.30 201.71 C 100.22 195.68 102.62 189.42 105.29 183.28 C 110.82 169.51 117.14 156.05 122.27 142.12 C 107.81 142.05 93.42 143.98 78.96 144.11 C 91.68 117.37 104.13 90.49 116.65 63.66 C 119.20 58.60 121.63 53.47 123.31 48.05 C 108.57 49.45 94.03 54.26 82.02 63.04 M 157.54 53.87 C 148.26 72.05 138.53 90.01 128.97 108.06 C 145.15 107.76 161.22 105.27 177.39 104.80 C 173.95 110.12 169.84 114.96 166.06 120.04 C 145.05 147.98 123.78 175.72 102.86 203.73 C 110.04 205.93 117.45 207.31 124.93 207.89 C 148.32 208.83 171.99 199.09 187.57 181.57 C 196.88 171.06 203.60 158.20 206.42 144.42 C 209.87 127.70 207.94 109.84 200.63 94.37 C 192.09 76.06 176.42 61.15 157.54 53.87 Z" />
</g>
</svg>
